<svg width="149" height="43" viewBox="0 0 149 43" fill="none" xmlns="http://www.w3.org/2000/svg">
<circle cx="18" cy="22" r="18" fill="#00A6FF"/>
<path d="M42.5 7.64773V5.36364H52.3352V7.64773H48.8068V17H46.0341V7.64773H42.5ZM52.8026 17V8.27273H55.5014V9.86364H55.5923C55.7514 9.28788 56.0109 8.85985 56.3707 8.57955C56.7306 8.29545 57.1491 8.15341 57.6264 8.15341C57.7552 8.15341 57.8878 8.16288 58.0241 8.18182C58.1605 8.19697 58.2874 8.22159 58.4048 8.25568V10.6705C58.2723 10.625 58.098 10.589 57.8821 10.5625C57.67 10.536 57.4806 10.5227 57.3139 10.5227C56.9844 10.5227 56.687 10.5966 56.4219 10.7443C56.1605 10.8883 55.9541 11.0909 55.8026 11.3523C55.6548 11.6098 55.581 11.9129 55.581 12.2614V17H52.8026ZM59.5369 17V8.27273H62.3153V17H59.5369ZM60.929 7.25568C60.5388 7.25568 60.2036 7.12689 59.9233 6.86932C59.643 6.60795 59.5028 6.29356 59.5028 5.92614C59.5028 5.5625 59.643 5.25189 59.9233 4.99432C60.2036 4.73295 60.5388 4.60227 60.929 4.60227C61.3229 4.60227 61.6581 4.73295 61.9347 4.99432C62.215 5.25189 62.3551 5.5625 62.3551 5.92614C62.3551 6.29356 62.215 6.60795 61.9347 6.86932C61.6581 7.12689 61.3229 7.25568 60.929 7.25568ZM78.0838 9.57955H75.2429C75.205 9.28788 75.1274 9.02462 75.0099 8.78977C74.8925 8.55492 74.7372 8.35417 74.544 8.1875C74.3509 8.02083 74.1217 7.89394 73.8565 7.80682C73.5952 7.71591 73.3054 7.67045 72.9872 7.67045C72.4228 7.67045 71.9361 7.80871 71.527 8.08523C71.1217 8.36174 70.8092 8.76136 70.5895 9.28409C70.3736 9.80682 70.2656 10.4394 70.2656 11.1818C70.2656 11.9545 70.3755 12.6023 70.5952 13.125C70.8187 13.6439 71.1312 14.036 71.5327 14.3011C71.938 14.5625 72.4171 14.6932 72.9702 14.6932C73.2808 14.6932 73.563 14.6534 73.8168 14.5739C74.0743 14.4943 74.2997 14.3788 74.4929 14.2273C74.6899 14.072 74.8509 13.8845 74.9759 13.6648C75.1046 13.4413 75.1937 13.1894 75.2429 12.9091L78.0838 12.9261C78.0346 13.4413 77.8849 13.9489 77.6349 14.4489C77.3887 14.9489 77.0497 15.4053 76.6179 15.8182C76.1861 16.2273 75.6596 16.553 75.0384 16.7955C74.4209 17.0379 73.7126 17.1591 72.9134 17.1591C71.8603 17.1591 70.9171 16.928 70.0838 16.4659C69.2543 16 68.599 15.322 68.1179 14.4318C67.6368 13.5417 67.3963 12.4583 67.3963 11.1818C67.3963 9.90152 67.6406 8.81629 68.1293 7.92614C68.6179 7.03598 69.2789 6.35985 70.1122 5.89773C70.9455 5.43561 71.8793 5.20455 72.9134 5.20455C73.6179 5.20455 74.2694 5.30303 74.8679 5.5C75.4664 5.69318 75.9929 5.97727 76.4474 6.35227C76.902 6.72348 77.2713 7.17992 77.5554 7.72159C77.8395 8.26326 78.0156 8.88258 78.0838 9.57955ZM83.767 17.1648C82.8504 17.1648 82.0625 16.9773 81.4034 16.6023C80.7481 16.2235 80.2424 15.697 79.8864 15.0227C79.5341 14.3447 79.358 13.5587 79.358 12.6648C79.358 11.767 79.5341 10.9811 79.8864 10.3068C80.2424 9.62879 80.7481 9.10227 81.4034 8.72727C82.0625 8.34848 82.8504 8.15909 83.767 8.15909C84.6837 8.15909 85.4697 8.34848 86.125 8.72727C86.7841 9.10227 87.2898 9.62879 87.642 10.3068C87.9981 10.9811 88.1761 11.767 88.1761 12.6648C88.1761 13.5587 87.9981 14.3447 87.642 15.0227C87.2898 15.697 86.7841 16.2235 86.125 16.6023C85.4697 16.9773 84.6837 17.1648 83.767 17.1648ZM83.7841 15.0682C84.1174 15.0682 84.3996 14.9659 84.6307 14.7614C84.8617 14.5568 85.0379 14.2727 85.1591 13.9091C85.2841 13.5455 85.3466 13.125 85.3466 12.6477C85.3466 12.1629 85.2841 11.7386 85.1591 11.375C85.0379 11.0114 84.8617 10.7273 84.6307 10.5227C84.3996 10.3182 84.1174 10.2159 83.7841 10.2159C83.4394 10.2159 83.1477 10.3182 82.9091 10.5227C82.6742 10.7273 82.4943 11.0114 82.3693 11.375C82.2481 11.7386 82.1875 12.1629 82.1875 12.6477C82.1875 13.125 82.2481 13.5455 82.3693 13.9091C82.4943 14.2727 82.6742 14.5568 82.9091 14.7614C83.1477 14.9659 83.4394 15.0682 83.7841 15.0682ZM92.7869 17.125C92.143 17.125 91.5578 16.9583 91.0312 16.625C90.5047 16.2917 90.0843 15.7917 89.7699 15.125C89.4555 14.4583 89.2983 13.6307 89.2983 12.642C89.2983 11.6155 89.4612 10.7708 89.7869 10.108C90.1127 9.44508 90.5388 8.95455 91.0653 8.63636C91.5956 8.31818 92.1657 8.15909 92.7756 8.15909C93.2339 8.15909 93.6259 8.23864 93.9517 8.39773C94.2775 8.55303 94.5464 8.75379 94.7585 9C94.9706 9.24621 95.1316 9.50189 95.2415 9.76705H95.2983V5.36364H98.0767V17H95.3267V15.5852H95.2415C95.1241 15.8542 94.9574 16.1061 94.7415 16.3409C94.5256 16.5758 94.2547 16.7652 93.929 16.9091C93.607 17.053 93.2263 17.125 92.7869 17.125ZM93.7528 14.9602C94.09 14.9602 94.3778 14.8655 94.6165 14.6761C94.8551 14.483 95.0388 14.2121 95.1676 13.8636C95.2964 13.5152 95.3608 13.1061 95.3608 12.6364C95.3608 12.1591 95.2964 11.7481 95.1676 11.4034C95.0426 11.0587 94.8589 10.7936 94.6165 10.608C94.3778 10.4223 94.09 10.3295 93.7528 10.3295C93.4081 10.3295 93.1165 10.4242 92.8778 10.6136C92.6392 10.803 92.4574 11.0701 92.3324 11.4148C92.2112 11.7595 92.1506 12.1667 92.1506 12.6364C92.1506 13.1061 92.2131 13.5152 92.3381 13.8636C92.4631 14.2121 92.643 14.483 92.8778 14.6761C93.1165 14.8655 93.4081 14.9602 93.7528 14.9602ZM103.913 17.1648C103 17.1648 102.213 16.9848 101.55 16.625C100.891 16.2614 100.383 15.7443 100.027 15.0739C99.6747 14.3996 99.4986 13.5985 99.4986 12.6705C99.4986 11.7689 99.6766 10.9811 100.033 10.3068C100.389 9.62879 100.891 9.10227 101.538 8.72727C102.186 8.34848 102.949 8.15909 103.828 8.15909C104.449 8.15909 105.018 8.25568 105.533 8.44886C106.048 8.64205 106.493 8.92803 106.868 9.30682C107.243 9.68561 107.535 10.1534 107.743 10.7102C107.951 11.2633 108.055 11.8977 108.055 12.6136V13.3068H100.47V11.6932H105.47C105.466 11.3977 105.396 11.1345 105.26 10.9034C105.124 10.6723 104.936 10.4924 104.697 10.3636C104.463 10.2311 104.192 10.1648 103.885 10.1648C103.574 10.1648 103.296 10.2348 103.05 10.375C102.804 10.5114 102.608 10.6989 102.464 10.9375C102.321 11.1723 102.245 11.4394 102.237 11.7386V13.3807C102.237 13.7367 102.307 14.0492 102.447 14.3182C102.588 14.5833 102.786 14.7898 103.044 14.9375C103.302 15.0852 103.608 15.1591 103.964 15.1591C104.211 15.1591 104.434 15.125 104.635 15.0568C104.836 14.9886 105.008 14.8883 105.152 14.7557C105.296 14.6231 105.404 14.4602 105.476 14.267L108.027 14.3409C107.921 14.9129 107.688 15.411 107.328 15.8352C106.972 16.2557 106.504 16.5833 105.925 16.8182C105.345 17.0492 104.675 17.1648 103.913 17.1648Z" fill="#0088FF"/>
<path d="M46.9545 36.1648C46.0341 36.1648 45.2443 35.9754 44.5852 35.5966C43.9299 35.2178 43.4261 34.6913 43.0739 34.017C42.7216 33.339 42.5455 32.5549 42.5455 31.6648C42.5455 30.7708 42.7216 29.9867 43.0739 29.3125C43.4299 28.6345 43.9356 28.1061 44.5909 27.7273C45.25 27.3485 46.036 27.1591 46.9489 27.1591C47.7557 27.1591 48.4583 27.3049 49.0568 27.5966C49.6591 27.8883 50.1288 28.3011 50.4659 28.8352C50.8068 29.3655 50.9867 29.9886 51.0057 30.7045H48.4091C48.3561 30.2576 48.2045 29.9072 47.9545 29.6534C47.7083 29.3996 47.3864 29.2727 46.9886 29.2727C46.6667 29.2727 46.3845 29.3636 46.142 29.5455C45.8996 29.7235 45.7102 29.9886 45.5739 30.3409C45.4413 30.6894 45.375 31.1212 45.375 31.6364C45.375 32.1515 45.4413 32.5871 45.5739 32.9432C45.7102 33.2955 45.8996 33.5625 46.142 33.7443C46.3845 33.9223 46.6667 34.0114 46.9886 34.0114C47.2462 34.0114 47.4735 33.9564 47.6705 33.8466C47.8712 33.7367 48.036 33.5758 48.1648 33.3636C48.2936 33.1477 48.375 32.8864 48.4091 32.5795H51.0057C50.9792 33.2992 50.7992 33.928 50.4659 34.4659C50.1364 35.0038 49.6723 35.4223 49.0739 35.7216C48.4792 36.017 47.7727 36.1648 46.9545 36.1648ZM56.5014 36.1648C55.5848 36.1648 54.7969 35.9773 54.1378 35.6023C53.4825 35.2235 52.9768 34.697 52.6207 34.0227C52.2685 33.3447 52.0923 32.5587 52.0923 31.6648C52.0923 30.767 52.2685 29.9811 52.6207 29.3068C52.9768 28.6288 53.4825 28.1023 54.1378 27.7273C54.7969 27.3485 55.5848 27.1591 56.5014 27.1591C57.4181 27.1591 58.2041 27.3485 58.8594 27.7273C59.5185 28.1023 60.0241 28.6288 60.3764 29.3068C60.7325 29.9811 60.9105 30.767 60.9105 31.6648C60.9105 32.5587 60.7325 33.3447 60.3764 34.0227C60.0241 34.697 59.5185 35.2235 58.8594 35.6023C58.2041 35.9773 57.4181 36.1648 56.5014 36.1648ZM56.5185 34.0682C56.8518 34.0682 57.134 33.9659 57.3651 33.7614C57.5961 33.5568 57.7723 33.2727 57.8935 32.9091C58.0185 32.5455 58.081 32.125 58.081 31.6477C58.081 31.1629 58.0185 30.7386 57.8935 30.375C57.7723 30.0114 57.5961 29.7273 57.3651 29.5227C57.134 29.3182 56.8518 29.2159 56.5185 29.2159C56.1738 29.2159 55.8821 29.3182 55.6435 29.5227C55.4086 29.7273 55.2287 30.0114 55.1037 30.375C54.9825 30.7386 54.9219 31.1629 54.9219 31.6477C54.9219 32.125 54.9825 32.5455 55.1037 32.9091C55.2287 33.2727 55.4086 33.5568 55.6435 33.7614C55.8821 33.9659 56.1738 34.0682 56.5185 34.0682ZM62.3338 36V27.2727H64.9759V28.875H65.0724C65.2543 28.3447 65.5611 27.9261 65.9929 27.6193C66.4247 27.3125 66.9399 27.1591 67.5384 27.1591C68.1444 27.1591 68.6634 27.3144 69.0952 27.625C69.527 27.9356 69.8016 28.3523 69.919 28.875H70.0099C70.1728 28.3561 70.491 27.9413 70.9645 27.6307C71.438 27.3163 71.9967 27.1591 72.6406 27.1591C73.4664 27.1591 74.1368 27.4242 74.652 27.9545C75.1671 28.4811 75.4247 29.2045 75.4247 30.125V36H72.6463V30.7614C72.6463 30.3258 72.5346 29.9943 72.3111 29.767C72.0876 29.536 71.7978 29.4205 71.4418 29.4205C71.0592 29.4205 70.758 29.5455 70.5384 29.7955C70.3224 30.0417 70.2145 30.3731 70.2145 30.7898V36H67.544V30.733C67.544 30.3277 67.4342 30.0076 67.2145 29.7727C66.9948 29.5379 66.705 29.4205 66.3452 29.4205C66.1027 29.4205 65.8887 29.4792 65.7031 29.5966C65.5175 29.7102 65.3717 29.8731 65.2656 30.0852C65.1634 30.2973 65.1122 30.5473 65.1122 30.8352V36H62.3338ZM77.1463 39.2727V27.2727H79.8963V28.767H79.9815C80.0952 28.5019 80.2562 28.2462 80.4645 28C80.6766 27.7538 80.9455 27.553 81.2713 27.3977C81.6009 27.2386 81.9948 27.1591 82.4531 27.1591C83.0592 27.1591 83.6255 27.3182 84.152 27.6364C84.6823 27.9545 85.1103 28.4451 85.4361 29.108C85.7618 29.7708 85.9247 30.6155 85.9247 31.642C85.9247 32.6307 85.7675 33.4583 85.4531 34.125C85.1425 34.7917 84.7221 35.2917 84.1918 35.625C83.6652 35.9583 83.08 36.125 82.4361 36.125C81.9967 36.125 81.616 36.053 81.294 35.9091C80.9721 35.7652 80.7012 35.5758 80.4815 35.3409C80.2656 35.1061 80.099 34.8542 79.9815 34.5852H79.9247V39.2727H77.1463ZM79.8679 31.6364C79.8679 32.1061 79.9304 32.5152 80.0554 32.8636C80.1842 33.2121 80.3679 33.483 80.6065 33.6761C80.849 33.8655 81.1387 33.9602 81.4759 33.9602C81.8168 33.9602 82.1065 33.8655 82.3452 33.6761C82.5838 33.483 82.7637 33.2121 82.8849 32.8636C83.0099 32.5152 83.0724 32.1061 83.0724 31.6364C83.0724 31.1667 83.0099 30.7595 82.8849 30.4148C82.7637 30.0701 82.5838 29.803 82.3452 29.6136C82.1103 29.4242 81.8205 29.3295 81.4759 29.3295C81.1349 29.3295 80.8452 29.4223 80.6065 29.608C80.3679 29.7936 80.1842 30.0587 80.0554 30.4034C79.9304 30.7481 79.8679 31.1591 79.8679 31.6364ZM87.3807 36V27.2727H90.1591V36H87.3807ZM88.7727 26.2557C88.3826 26.2557 88.0473 26.1269 87.767 25.8693C87.4867 25.608 87.3466 25.2936 87.3466 24.9261C87.3466 24.5625 87.4867 24.2519 87.767 23.9943C88.0473 23.733 88.3826 23.6023 88.7727 23.6023C89.1667 23.6023 89.5019 23.733 89.7784 23.9943C90.0587 24.2519 90.1989 24.5625 90.1989 24.9261C90.1989 25.2936 90.0587 25.608 89.7784 25.8693C89.5019 26.1269 89.1667 26.2557 88.7727 26.2557ZM94.706 24.3636V36H91.9276V24.3636H94.706ZM100.554 36.1648C99.6411 36.1648 98.8532 35.9848 98.1903 35.625C97.5313 35.2614 97.0237 34.7443 96.6676 34.0739C96.3153 33.3996 96.1392 32.5985 96.1392 31.6705C96.1392 30.7689 96.3172 29.9811 96.6733 29.3068C97.0294 28.6288 97.5312 28.1023 98.179 27.7273C98.8267 27.3485 99.59 27.1591 100.469 27.1591C101.09 27.1591 101.658 27.2557 102.173 27.4489C102.688 27.642 103.134 27.928 103.509 28.3068C103.884 28.6856 104.175 29.1534 104.384 29.7102C104.592 30.2633 104.696 30.8977 104.696 31.6136V32.3068H97.1108V30.6932H102.111C102.107 30.3977 102.037 30.1345 101.901 29.9034C101.764 29.6723 101.577 29.4924 101.338 29.3636C101.103 29.2311 100.832 29.1648 100.526 29.1648C100.215 29.1648 99.9366 29.2348 99.6903 29.375C99.4441 29.5114 99.2491 29.6989 99.1051 29.9375C98.9612 30.1723 98.8854 30.4394 98.8778 30.7386V32.3807C98.8778 32.7367 98.9479 33.0492 99.0881 33.3182C99.2282 33.5833 99.4271 33.7898 99.6847 33.9375C99.9422 34.0852 100.249 34.1591 100.605 34.1591C100.851 34.1591 101.075 34.125 101.276 34.0568C101.476 33.9886 101.649 33.8883 101.793 33.7557C101.937 33.6231 102.045 33.4602 102.116 33.267L104.668 33.3409C104.562 33.9129 104.329 34.411 103.969 34.8352C103.613 35.2557 103.145 35.5833 102.565 35.8182C101.986 36.0492 101.315 36.1648 100.554 36.1648ZM106.115 36V27.2727H108.814V28.8636H108.905C109.064 28.2879 109.323 27.8598 109.683 27.5795C110.043 27.2955 110.462 27.1534 110.939 27.1534C111.068 27.1534 111.2 27.1629 111.337 27.1818C111.473 27.197 111.6 27.2216 111.717 27.2557V29.6705C111.585 29.625 111.411 29.589 111.195 29.5625C110.982 29.536 110.793 29.5227 110.626 29.5227C110.297 29.5227 110 29.5966 109.734 29.7443C109.473 29.8883 109.267 30.0909 109.115 30.3523C108.967 30.6098 108.893 30.9129 108.893 31.2614V36H106.115Z" fill="black"/>
<path d="M13.8075 25.1C13.3075 24.9 12.8225 24.7075 12.3525 24.5225C11.8825 24.3375 11.44 24.1625 11.025 23.9975L9.5775 23.4125C9.1725 23.2475 8.735 23.0725 8.265 22.8875C7.795 22.7025 7.315 22.5125 6.825 22.3175V20.6375C7.32 20.4425 7.8025 20.2525 8.2725 20.0675C8.7425 19.8775 9.18 19.7025 9.585 19.5425L11.0325 18.9575C11.4425 18.7925 11.8825 18.6175 12.3525 18.4325C12.8225 18.2475 13.3075 18.055 13.8075 17.855V19.6175C13.3275 19.8075 12.845 20 12.36 20.195C11.875 20.385 11.39 20.58 10.905 20.78L9.3675 21.395V21.56L10.905 22.175C11.385 22.365 11.87 22.5575 12.36 22.7525C12.85 22.9475 13.3325 23.1425 13.8075 23.3375V25.1ZM24.0662 25.1V23.3375C24.5412 23.1425 25.0212 22.9475 25.5062 22.7525C25.9962 22.5575 26.4837 22.365 26.9687 22.175L28.4987 21.56V21.395L26.9687 20.78C26.4837 20.585 25.9962 20.39 25.5062 20.195C25.0212 20 24.5412 19.8075 24.0662 19.6175V17.855C24.5612 18.05 25.0437 18.2425 25.5137 18.4325C25.9837 18.6175 26.4237 18.7925 26.8337 18.9575L28.2887 19.5425C28.6937 19.7025 29.1312 19.8775 29.6012 20.0675C30.0712 20.2525 30.5537 20.4425 31.0487 20.6375V22.3175C30.5537 22.5125 30.0712 22.7025 29.6012 22.8875C29.1312 23.0725 28.6937 23.2475 28.2887 23.4125L26.8337 23.9975C26.4237 24.1625 25.9837 24.34 25.5137 24.53C25.0437 24.715 24.5612 24.905 24.0662 25.1Z" fill="white"/>
<rect width="18.0356" height="2.44713" transform="matrix(0.384648 -0.923063 0.926678 0.375857 14.1905 29.2725)" fill="white"/>
<circle cx="18" cy="22" r="18" fill="#00A6FF"/>
<path d="M42.5 7.64773V5.36364H52.3352V7.64773H48.8068V17H46.0341V7.64773H42.5ZM52.8026 17V8.27273H55.5014V9.86364H55.5923C55.7514 9.28788 56.0109 8.85985 56.3707 8.57955C56.7306 8.29545 57.1491 8.15341 57.6264 8.15341C57.7552 8.15341 57.8878 8.16288 58.0241 8.18182C58.1605 8.19697 58.2874 8.22159 58.4048 8.25568V10.6705C58.2723 10.625 58.098 10.589 57.8821 10.5625C57.67 10.536 57.4806 10.5227 57.3139 10.5227C56.9844 10.5227 56.687 10.5966 56.4219 10.7443C56.1605 10.8883 55.9541 11.0909 55.8026 11.3523C55.6548 11.6098 55.581 11.9129 55.581 12.2614V17H52.8026ZM59.5369 17V8.27273H62.3153V17H59.5369ZM60.929 7.25568C60.5388 7.25568 60.2036 7.12689 59.9233 6.86932C59.643 6.60795 59.5028 6.29356 59.5028 5.92614C59.5028 5.5625 59.643 5.25189 59.9233 4.99432C60.2036 4.73295 60.5388 4.60227 60.929 4.60227C61.3229 4.60227 61.6581 4.73295 61.9347 4.99432C62.215 5.25189 62.3551 5.5625 62.3551 5.92614C62.3551 6.29356 62.215 6.60795 61.9347 6.86932C61.6581 7.12689 61.3229 7.25568 60.929 7.25568ZM78.0838 9.57955H75.2429C75.205 9.28788 75.1274 9.02462 75.0099 8.78977C74.8925 8.55492 74.7372 8.35417 74.544 8.1875C74.3509 8.02083 74.1217 7.89394 73.8565 7.80682C73.5952 7.71591 73.3054 7.67045 72.9872 7.67045C72.4228 7.67045 71.9361 7.80871 71.527 8.08523C71.1217 8.36174 70.8092 8.76136 70.5895 9.28409C70.3736 9.80682 70.2656 10.4394 70.2656 11.1818C70.2656 11.9545 70.3755 12.6023 70.5952 13.125C70.8187 13.6439 71.1312 14.036 71.5327 14.3011C71.938 14.5625 72.4171 14.6932 72.9702 14.6932C73.2808 14.6932 73.563 14.6534 73.8168 14.5739C74.0743 14.4943 74.2997 14.3788 74.4929 14.2273C74.6899 14.072 74.8509 13.8845 74.9759 13.6648C75.1046 13.4413 75.1937 13.1894 75.2429 12.9091L78.0838 12.9261C78.0346 13.4413 77.8849 13.9489 77.6349 14.4489C77.3887 14.9489 77.0497 15.4053 76.6179 15.8182C76.1861 16.2273 75.6596 16.553 75.0384 16.7955C74.4209 17.0379 73.7126 17.1591 72.9134 17.1591C71.8603 17.1591 70.9171 16.928 70.0838 16.4659C69.2543 16 68.599 15.322 68.1179 14.4318C67.6368 13.5417 67.3963 12.4583 67.3963 11.1818C67.3963 9.90152 67.6406 8.81629 68.1293 7.92614C68.6179 7.03598 69.2789 6.35985 70.1122 5.89773C70.9455 5.43561 71.8793 5.20455 72.9134 5.20455C73.6179 5.20455 74.2694 5.30303 74.8679 5.5C75.4664 5.69318 75.9929 5.97727 76.4474 6.35227C76.902 6.72348 77.2713 7.17992 77.5554 7.72159C77.8395 8.26326 78.0156 8.88258 78.0838 9.57955ZM83.767 17.1648C82.8504 17.1648 82.0625 16.9773 81.4034 16.6023C80.7481 16.2235 80.2424 15.697 79.8864 15.0227C79.5341 14.3447 79.358 13.5587 79.358 12.6648C79.358 11.767 79.5341 10.9811 79.8864 10.3068C80.2424 9.62879 80.7481 9.10227 81.4034 8.72727C82.0625 8.34848 82.8504 8.15909 83.767 8.15909C84.6837 8.15909 85.4697 8.34848 86.125 8.72727C86.7841 9.10227 87.2898 9.62879 87.642 10.3068C87.9981 10.9811 88.1761 11.767 88.1761 12.6648C88.1761 13.5587 87.9981 14.3447 87.642 15.0227C87.2898 15.697 86.7841 16.2235 86.125 16.6023C85.4697 16.9773 84.6837 17.1648 83.767 17.1648ZM83.7841 15.0682C84.1174 15.0682 84.3996 14.9659 84.6307 14.7614C84.8617 14.5568 85.0379 14.2727 85.1591 13.9091C85.2841 13.5455 85.3466 13.125 85.3466 12.6477C85.3466 12.1629 85.2841 11.7386 85.1591 11.375C85.0379 11.0114 84.8617 10.7273 84.6307 10.5227C84.3996 10.3182 84.1174 10.2159 83.7841 10.2159C83.4394 10.2159 83.1477 10.3182 82.9091 10.5227C82.6742 10.7273 82.4943 11.0114 82.3693 11.375C82.2481 11.7386 82.1875 12.1629 82.1875 12.6477C82.1875 13.125 82.2481 13.5455 82.3693 13.9091C82.4943 14.2727 82.6742 14.5568 82.9091 14.7614C83.1477 14.9659 83.4394 15.0682 83.7841 15.0682ZM92.7869 17.125C92.143 17.125 91.5578 16.9583 91.0312 16.625C90.5047 16.2917 90.0843 15.7917 89.7699 15.125C89.4555 14.4583 89.2983 13.6307 89.2983 12.642C89.2983 11.6155 89.4612 10.7708 89.7869 10.108C90.1127 9.44508 90.5388 8.95455 91.0653 8.63636C91.5956 8.31818 92.1657 8.15909 92.7756 8.15909C93.2339 8.15909 93.6259 8.23864 93.9517 8.39773C94.2775 8.55303 94.5464 8.75379 94.7585 9C94.9706 9.24621 95.1316 9.50189 95.2415 9.76705H95.2983V5.36364H98.0767V17H95.3267V15.5852H95.2415C95.1241 15.8542 94.9574 16.1061 94.7415 16.3409C94.5256 16.5758 94.2547 16.7652 93.929 16.9091C93.607 17.053 93.2263 17.125 92.7869 17.125ZM93.7528 14.9602C94.09 14.9602 94.3778 14.8655 94.6165 14.6761C94.8551 14.483 95.0388 14.2121 95.1676 13.8636C95.2964 13.5152 95.3608 13.1061 95.3608 12.6364C95.3608 12.1591 95.2964 11.7481 95.1676 11.4034C95.0426 11.0587 94.8589 10.7936 94.6165 10.608C94.3778 10.4223 94.09 10.3295 93.7528 10.3295C93.4081 10.3295 93.1165 10.4242 92.8778 10.6136C92.6392 10.803 92.4574 11.0701 92.3324 11.4148C92.2112 11.7595 92.1506 12.1667 92.1506 12.6364C92.1506 13.1061 92.2131 13.5152 92.3381 13.8636C92.4631 14.2121 92.643 14.483 92.8778 14.6761C93.1165 14.8655 93.4081 14.9602 93.7528 14.9602ZM103.913 17.1648C103 17.1648 102.213 16.9848 101.55 16.625C100.891 16.2614 100.383 15.7443 100.027 15.0739C99.6747 14.3996 99.4986 13.5985 99.4986 12.6705C99.4986 11.7689 99.6766 10.9811 100.033 10.3068C100.389 9.62879 100.891 9.10227 101.538 8.72727C102.186 8.34848 102.949 8.15909 103.828 8.15909C104.449 8.15909 105.018 8.25568 105.533 8.44886C106.048 8.64205 106.493 8.92803 106.868 9.30682C107.243 9.68561 107.535 10.1534 107.743 10.7102C107.951 11.2633 108.055 11.8977 108.055 12.6136V13.3068H100.47V11.6932H105.47C105.466 11.3977 105.396 11.1345 105.26 10.9034C105.124 10.6723 104.936 10.4924 104.697 10.3636C104.463 10.2311 104.192 10.1648 103.885 10.1648C103.574 10.1648 103.296 10.2348 103.05 10.375C102.804 10.5114 102.608 10.6989 102.464 10.9375C102.321 11.1723 102.245 11.4394 102.237 11.7386V13.3807C102.237 13.7367 102.307 14.0492 102.447 14.3182C102.588 14.5833 102.786 14.7898 103.044 14.9375C103.302 15.0852 103.608 15.1591 103.964 15.1591C104.211 15.1591 104.434 15.125 104.635 15.0568C104.836 14.9886 105.008 14.8883 105.152 14.7557C105.296 14.6231 105.404 14.4602 105.476 14.267L108.027 14.3409C107.921 14.9129 107.688 15.411 107.328 15.8352C106.972 16.2557 106.504 16.5833 105.925 16.8182C105.345 17.0492 104.675 17.1648 103.913 17.1648Z" fill="#0088FF"/>
<path d="M46.9545 36.1648C46.0341 36.1648 45.2443 35.9754 44.5852 35.5966C43.9299 35.2178 43.4261 34.6913 43.0739 34.017C42.7216 33.339 42.5455 32.5549 42.5455 31.6648C42.5455 30.7708 42.7216 29.9867 43.0739 29.3125C43.4299 28.6345 43.9356 28.1061 44.5909 27.7273C45.25 27.3485 46.036 27.1591 46.9489 27.1591C47.7557 27.1591 48.4583 27.3049 49.0568 27.5966C49.6591 27.8883 50.1288 28.3011 50.4659 28.8352C50.8068 29.3655 50.9867 29.9886 51.0057 30.7045H48.4091C48.3561 30.2576 48.2045 29.9072 47.9545 29.6534C47.7083 29.3996 47.3864 29.2727 46.9886 29.2727C46.6667 29.2727 46.3845 29.3636 46.142 29.5455C45.8996 29.7235 45.7102 29.9886 45.5739 30.3409C45.4413 30.6894 45.375 31.1212 45.375 31.6364C45.375 32.1515 45.4413 32.5871 45.5739 32.9432C45.7102 33.2955 45.8996 33.5625 46.142 33.7443C46.3845 33.9223 46.6667 34.0114 46.9886 34.0114C47.2462 34.0114 47.4735 33.9564 47.6705 33.8466C47.8712 33.7367 48.036 33.5758 48.1648 33.3636C48.2936 33.1477 48.375 32.8864 48.4091 32.5795H51.0057C50.9792 33.2992 50.7992 33.928 50.4659 34.4659C50.1364 35.0038 49.6723 35.4223 49.0739 35.7216C48.4792 36.017 47.7727 36.1648 46.9545 36.1648ZM56.5014 36.1648C55.5848 36.1648 54.7969 35.9773 54.1378 35.6023C53.4825 35.2235 52.9768 34.697 52.6207 34.0227C52.2685 33.3447 52.0923 32.5587 52.0923 31.6648C52.0923 30.767 52.2685 29.9811 52.6207 29.3068C52.9768 28.6288 53.4825 28.1023 54.1378 27.7273C54.7969 27.3485 55.5848 27.1591 56.5014 27.1591C57.4181 27.1591 58.2041 27.3485 58.8594 27.7273C59.5185 28.1023 60.0241 28.6288 60.3764 29.3068C60.7325 29.9811 60.9105 30.767 60.9105 31.6648C60.9105 32.5587 60.7325 33.3447 60.3764 34.0227C60.0241 34.697 59.5185 35.2235 58.8594 35.6023C58.2041 35.9773 57.4181 36.1648 56.5014 36.1648ZM56.5185 34.0682C56.8518 34.0682 57.134 33.9659 57.3651 33.7614C57.5961 33.5568 57.7723 33.2727 57.8935 32.9091C58.0185 32.5455 58.081 32.125 58.081 31.6477C58.081 31.1629 58.0185 30.7386 57.8935 30.375C57.7723 30.0114 57.5961 29.7273 57.3651 29.5227C57.134 29.3182 56.8518 29.2159 56.5185 29.2159C56.1738 29.2159 55.8821 29.3182 55.6435 29.5227C55.4086 29.7273 55.2287 30.0114 55.1037 30.375C54.9825 30.7386 54.9219 31.1629 54.9219 31.6477C54.9219 32.125 54.9825 32.5455 55.1037 32.9091C55.2287 33.2727 55.4086 33.5568 55.6435 33.7614C55.8821 33.9659 56.1738 34.0682 56.5185 34.0682ZM62.3338 36V27.2727H64.9759V28.875H65.0724C65.2543 28.3447 65.5611 27.9261 65.9929 27.6193C66.4247 27.3125 66.9399 27.1591 67.5384 27.1591C68.1444 27.1591 68.6634 27.3144 69.0952 27.625C69.527 27.9356 69.8016 28.3523 69.919 28.875H70.0099C70.1728 28.3561 70.491 27.9413 70.9645 27.6307C71.438 27.3163 71.9967 27.1591 72.6406 27.1591C73.4664 27.1591 74.1368 27.4242 74.652 27.9545C75.1671 28.4811 75.4247 29.2045 75.4247 30.125V36H72.6463V30.7614C72.6463 30.3258 72.5346 29.9943 72.3111 29.767C72.0876 29.536 71.7978 29.4205 71.4418 29.4205C71.0592 29.4205 70.758 29.5455 70.5384 29.7955C70.3224 30.0417 70.2145 30.3731 70.2145 30.7898V36H67.544V30.733C67.544 30.3277 67.4342 30.0076 67.2145 29.7727C66.9948 29.5379 66.705 29.4205 66.3452 29.4205C66.1027 29.4205 65.8887 29.4792 65.7031 29.5966C65.5175 29.7102 65.3717 29.8731 65.2656 30.0852C65.1634 30.2973 65.1122 30.5473 65.1122 30.8352V36H62.3338ZM77.1463 39.2727V27.2727H79.8963V28.767H79.9815C80.0952 28.5019 80.2562 28.2462 80.4645 28C80.6766 27.7538 80.9455 27.553 81.2713 27.3977C81.6009 27.2386 81.9948 27.1591 82.4531 27.1591C83.0592 27.1591 83.6255 27.3182 84.152 27.6364C84.6823 27.9545 85.1103 28.4451 85.4361 29.108C85.7618 29.7708 85.9247 30.6155 85.9247 31.642C85.9247 32.6307 85.7675 33.4583 85.4531 34.125C85.1425 34.7917 84.7221 35.2917 84.1918 35.625C83.6652 35.9583 83.08 36.125 82.4361 36.125C81.9967 36.125 81.616 36.053 81.294 35.9091C80.9721 35.7652 80.7012 35.5758 80.4815 35.3409C80.2656 35.1061 80.099 34.8542 79.9815 34.5852H79.9247V39.2727H77.1463ZM79.8679 31.6364C79.8679 32.1061 79.9304 32.5152 80.0554 32.8636C80.1842 33.2121 80.3679 33.483 80.6065 33.6761C80.849 33.8655 81.1387 33.9602 81.4759 33.9602C81.8168 33.9602 82.1065 33.8655 82.3452 33.6761C82.5838 33.483 82.7637 33.2121 82.8849 32.8636C83.0099 32.5152 83.0724 32.1061 83.0724 31.6364C83.0724 31.1667 83.0099 30.7595 82.8849 30.4148C82.7637 30.0701 82.5838 29.803 82.3452 29.6136C82.1103 29.4242 81.8205 29.3295 81.4759 29.3295C81.1349 29.3295 80.8452 29.4223 80.6065 29.608C80.3679 29.7936 80.1842 30.0587 80.0554 30.4034C79.9304 30.7481 79.8679 31.1591 79.8679 31.6364ZM87.3807 36V27.2727H90.1591V36H87.3807ZM88.7727 26.2557C88.3826 26.2557 88.0473 26.1269 87.767 25.8693C87.4867 25.608 87.3466 25.2936 87.3466 24.9261C87.3466 24.5625 87.4867 24.2519 87.767 23.9943C88.0473 23.733 88.3826 23.6023 88.7727 23.6023C89.1667 23.6023 89.5019 23.733 89.7784 23.9943C90.0587 24.2519 90.1989 24.5625 90.1989 24.9261C90.1989 25.2936 90.0587 25.608 89.7784 25.8693C89.5019 26.1269 89.1667 26.2557 88.7727 26.2557ZM94.706 24.3636V36H91.9276V24.3636H94.706ZM100.554 36.1648C99.6411 36.1648 98.8532 35.9848 98.1903 35.625C97.5313 35.2614 97.0237 34.7443 96.6676 34.0739C96.3153 33.3996 96.1392 32.5985 96.1392 31.6705C96.1392 30.7689 96.3172 29.9811 96.6733 29.3068C97.0294 28.6288 97.5312 28.1023 98.179 27.7273C98.8267 27.3485 99.59 27.1591 100.469 27.1591C101.09 27.1591 101.658 27.2557 102.173 27.4489C102.688 27.642 103.134 27.928 103.509 28.3068C103.884 28.6856 104.175 29.1534 104.384 29.7102C104.592 30.2633 104.696 30.8977 104.696 31.6136V32.3068H97.1108V30.6932H102.111C102.107 30.3977 102.037 30.1345 101.901 29.9034C101.764 29.6723 101.577 29.4924 101.338 29.3636C101.103 29.2311 100.832 29.1648 100.526 29.1648C100.215 29.1648 99.9366 29.2348 99.6903 29.375C99.4441 29.5114 99.2491 29.6989 99.1051 29.9375C98.9612 30.1723 98.8854 30.4394 98.8778 30.7386V32.3807C98.8778 32.7367 98.9479 33.0492 99.0881 33.3182C99.2282 33.5833 99.4271 33.7898 99.6847 33.9375C99.9422 34.0852 100.249 34.1591 100.605 34.1591C100.851 34.1591 101.075 34.125 101.276 34.0568C101.476 33.9886 101.649 33.8883 101.793 33.7557C101.937 33.6231 102.045 33.4602 102.116 33.267L104.668 33.3409C104.562 33.9129 104.329 34.411 103.969 34.8352C103.613 35.2557 103.145 35.5833 102.565 35.8182C101.986 36.0492 101.315 36.1648 100.554 36.1648ZM106.115 36V27.2727H108.814V28.8636H108.905C109.064 28.2879 109.323 27.8598 109.683 27.5795C110.043 27.2955 110.462 27.1534 110.939 27.1534C111.068 27.1534 111.2 27.1629 111.337 27.1818C111.473 27.197 111.6 27.2216 111.717 27.2557V29.6705C111.585 29.625 111.411 29.589 111.195 29.5625C110.982 29.536 110.793 29.5227 110.626 29.5227C110.297 29.5227 110 29.5966 109.734 29.7443C109.473 29.8883 109.267 30.0909 109.115 30.3523C108.967 30.6098 108.893 30.9129 108.893 31.2614V36H106.115Z" fill="black"/>
<path d="M13.8075 25.1C13.3075 24.9 12.8225 24.7075 12.3525 24.5225C11.8825 24.3375 11.44 24.1625 11.025 23.9975L9.5775 23.4125C9.1725 23.2475 8.735 23.0725 8.265 22.8875C7.795 22.7025 7.315 22.5125 6.825 22.3175V20.6375C7.32 20.4425 7.8025 20.2525 8.2725 20.0675C8.7425 19.8775 9.18 19.7025 9.585 19.5425L11.0325 18.9575C11.4425 18.7925 11.8825 18.6175 12.3525 18.4325C12.8225 18.2475 13.3075 18.055 13.8075 17.855V19.6175C13.3275 19.8075 12.845 20 12.36 20.195C11.875 20.385 11.39 20.58 10.905 20.78L9.3675 21.395V21.56L10.905 22.175C11.385 22.365 11.87 22.5575 12.36 22.7525C12.85 22.9475 13.3325 23.1425 13.8075 23.3375V25.1ZM24.0662 25.1V23.3375C24.5412 23.1425 25.0212 22.9475 25.5062 22.7525C25.9962 22.5575 26.4837 22.365 26.9687 22.175L28.4987 21.56V21.395L26.9687 20.78C26.4837 20.585 25.9962 20.39 25.5062 20.195C25.0212 20 24.5412 19.8075 24.0662 19.6175V17.855C24.5612 18.05 25.0437 18.2425 25.5137 18.4325C25.9837 18.6175 26.4237 18.7925 26.8337 18.9575L28.2887 19.5425C28.6937 19.7025 29.1312 19.8775 29.6012 20.0675C30.0712 20.2525 30.5537 20.4425 31.0487 20.6375V22.3175C30.5537 22.5125 30.0712 22.7025 29.6012 22.8875C29.1312 23.0725 28.6937 23.2475 28.2887 23.4125L26.8337 23.9975C26.4237 24.1625 25.9837 24.34 25.5137 24.53C25.0437 24.715 24.5612 24.905 24.0662 25.1Z" fill="white"/>
<rect width="18.0356" height="2.44713" transform="matrix(0.384648 -0.923063 0.926678 0.375857 14.1905 29.2725)" fill="white"/>
<circle cx="18" cy="22" r="18" fill="#00A6FF"/>
<path d="M42.5 7.64773V5.36364H52.3352V7.64773H48.8068V17H46.0341V7.64773H42.5ZM52.8026 17V8.27273H55.5014V9.86364H55.5923C55.7514 9.28788 56.0109 8.85985 56.3707 8.57955C56.7306 8.29545 57.1491 8.15341 57.6264 8.15341C57.7552 8.15341 57.8878 8.16288 58.0241 8.18182C58.1605 8.19697 58.2874 8.22159 58.4048 8.25568V10.6705C58.2723 10.625 58.098 10.589 57.8821 10.5625C57.67 10.536 57.4806 10.5227 57.3139 10.5227C56.9844 10.5227 56.687 10.5966 56.4219 10.7443C56.1605 10.8883 55.9541 11.0909 55.8026 11.3523C55.6548 11.6098 55.581 11.9129 55.581 12.2614V17H52.8026ZM59.5369 17V8.27273H62.3153V17H59.5369ZM60.929 7.25568C60.5388 7.25568 60.2036 7.12689 59.9233 6.86932C59.643 6.60795 59.5028 6.29356 59.5028 5.92614C59.5028 5.5625 59.643 5.25189 59.9233 4.99432C60.2036 4.73295 60.5388 4.60227 60.929 4.60227C61.3229 4.60227 61.6581 4.73295 61.9347 4.99432C62.215 5.25189 62.3551 5.5625 62.3551 5.92614C62.3551 6.29356 62.215 6.60795 61.9347 6.86932C61.6581 7.12689 61.3229 7.25568 60.929 7.25568ZM78.0838 9.57955H75.2429C75.205 9.28788 75.1274 9.02462 75.0099 8.78977C74.8925 8.55492 74.7372 8.35417 74.544 8.1875C74.3509 8.02083 74.1217 7.89394 73.8565 7.80682C73.5952 7.71591 73.3054 7.67045 72.9872 7.67045C72.4228 7.67045 71.9361 7.80871 71.527 8.08523C71.1217 8.36174 70.8092 8.76136 70.5895 9.28409C70.3736 9.80682 70.2656 10.4394 70.2656 11.1818C70.2656 11.9545 70.3755 12.6023 70.5952 13.125C70.8187 13.6439 71.1312 14.036 71.5327 14.3011C71.938 14.5625 72.4171 14.6932 72.9702 14.6932C73.2808 14.6932 73.563 14.6534 73.8168 14.5739C74.0743 14.4943 74.2997 14.3788 74.4929 14.2273C74.6899 14.072 74.8509 13.8845 74.9759 13.6648C75.1046 13.4413 75.1937 13.1894 75.2429 12.9091L78.0838 12.9261C78.0346 13.4413 77.8849 13.9489 77.6349 14.4489C77.3887 14.9489 77.0497 15.4053 76.6179 15.8182C76.1861 16.2273 75.6596 16.553 75.0384 16.7955C74.4209 17.0379 73.7126 17.1591 72.9134 17.1591C71.8603 17.1591 70.9171 16.928 70.0838 16.4659C69.2543 16 68.599 15.322 68.1179 14.4318C67.6368 13.5417 67.3963 12.4583 67.3963 11.1818C67.3963 9.90152 67.6406 8.81629 68.1293 7.92614C68.6179 7.03598 69.2789 6.35985 70.1122 5.89773C70.9455 5.43561 71.8793 5.20455 72.9134 5.20455C73.6179 5.20455 74.2694 5.30303 74.8679 5.5C75.4664 5.69318 75.9929 5.97727 76.4474 6.35227C76.902 6.72348 77.2713 7.17992 77.5554 7.72159C77.8395 8.26326 78.0156 8.88258 78.0838 9.57955ZM83.767 17.1648C82.8504 17.1648 82.0625 16.9773 81.4034 16.6023C80.7481 16.2235 80.2424 15.697 79.8864 15.0227C79.5341 14.3447 79.358 13.5587 79.358 12.6648C79.358 11.767 79.5341 10.9811 79.8864 10.3068C80.2424 9.62879 80.7481 9.10227 81.4034 8.72727C82.0625 8.34848 82.8504 8.15909 83.767 8.15909C84.6837 8.15909 85.4697 8.34848 86.125 8.72727C86.7841 9.10227 87.2898 9.62879 87.642 10.3068C87.9981 10.9811 88.1761 11.767 88.1761 12.6648C88.1761 13.5587 87.9981 14.3447 87.642 15.0227C87.2898 15.697 86.7841 16.2235 86.125 16.6023C85.4697 16.9773 84.6837 17.1648 83.767 17.1648ZM83.7841 15.0682C84.1174 15.0682 84.3996 14.9659 84.6307 14.7614C84.8617 14.5568 85.0379 14.2727 85.1591 13.9091C85.2841 13.5455 85.3466 13.125 85.3466 12.6477C85.3466 12.1629 85.2841 11.7386 85.1591 11.375C85.0379 11.0114 84.8617 10.7273 84.6307 10.5227C84.3996 10.3182 84.1174 10.2159 83.7841 10.2159C83.4394 10.2159 83.1477 10.3182 82.9091 10.5227C82.6742 10.7273 82.4943 11.0114 82.3693 11.375C82.2481 11.7386 82.1875 12.1629 82.1875 12.6477C82.1875 13.125 82.2481 13.5455 82.3693 13.9091C82.4943 14.2727 82.6742 14.5568 82.9091 14.7614C83.1477 14.9659 83.4394 15.0682 83.7841 15.0682ZM92.7869 17.125C92.143 17.125 91.5578 16.9583 91.0312 16.625C90.5047 16.2917 90.0843 15.7917 89.7699 15.125C89.4555 14.4583 89.2983 13.6307 89.2983 12.642C89.2983 11.6155 89.4612 10.7708 89.7869 10.108C90.1127 9.44508 90.5388 8.95455 91.0653 8.63636C91.5956 8.31818 92.1657 8.15909 92.7756 8.15909C93.2339 8.15909 93.6259 8.23864 93.9517 8.39773C94.2775 8.55303 94.5464 8.75379 94.7585 9C94.9706 9.24621 95.1316 9.50189 95.2415 9.76705H95.2983V5.36364H98.0767V17H95.3267V15.5852H95.2415C95.1241 15.8542 94.9574 16.1061 94.7415 16.3409C94.5256 16.5758 94.2547 16.7652 93.929 16.9091C93.607 17.053 93.2263 17.125 92.7869 17.125ZM93.7528 14.9602C94.09 14.9602 94.3778 14.8655 94.6165 14.6761C94.8551 14.483 95.0388 14.2121 95.1676 13.8636C95.2964 13.5152 95.3608 13.1061 95.3608 12.6364C95.3608 12.1591 95.2964 11.7481 95.1676 11.4034C95.0426 11.0587 94.8589 10.7936 94.6165 10.608C94.3778 10.4223 94.09 10.3295 93.7528 10.3295C93.4081 10.3295 93.1165 10.4242 92.8778 10.6136C92.6392 10.803 92.4574 11.0701 92.3324 11.4148C92.2112 11.7595 92.1506 12.1667 92.1506 12.6364C92.1506 13.1061 92.2131 13.5152 92.3381 13.8636C92.4631 14.2121 92.643 14.483 92.8778 14.6761C93.1165 14.8655 93.4081 14.9602 93.7528 14.9602ZM103.913 17.1648C103 17.1648 102.213 16.9848 101.55 16.625C100.891 16.2614 100.383 15.7443 100.027 15.0739C99.6747 14.3996 99.4986 13.5985 99.4986 12.6705C99.4986 11.7689 99.6766 10.9811 100.033 10.3068C100.389 9.62879 100.891 9.10227 101.538 8.72727C102.186 8.34848 102.949 8.15909 103.828 8.15909C104.449 8.15909 105.018 8.25568 105.533 8.44886C106.048 8.64205 106.493 8.92803 106.868 9.30682C107.243 9.68561 107.535 10.1534 107.743 10.7102C107.951 11.2633 108.055 11.8977 108.055 12.6136V13.3068H100.47V11.6932H105.47C105.466 11.3977 105.396 11.1345 105.26 10.9034C105.124 10.6723 104.936 10.4924 104.697 10.3636C104.463 10.2311 104.192 10.1648 103.885 10.1648C103.574 10.1648 103.296 10.2348 103.05 10.375C102.804 10.5114 102.608 10.6989 102.464 10.9375C102.321 11.1723 102.245 11.4394 102.237 11.7386V13.3807C102.237 13.7367 102.307 14.0492 102.447 14.3182C102.588 14.5833 102.786 14.7898 103.044 14.9375C103.302 15.0852 103.608 15.1591 103.964 15.1591C104.211 15.1591 104.434 15.125 104.635 15.0568C104.836 14.9886 105.008 14.8883 105.152 14.7557C105.296 14.6231 105.404 14.4602 105.476 14.267L108.027 14.3409C107.921 14.9129 107.688 15.411 107.328 15.8352C106.972 16.2557 106.504 16.5833 105.925 16.8182C105.345 17.0492 104.675 17.1648 103.913 17.1648Z" fill="#0088FF"/>
<path d="M46.9545 36.1648C46.0341 36.1648 45.2443 35.9754 44.5852 35.5966C43.9299 35.2178 43.4261 34.6913 43.0739 34.017C42.7216 33.339 42.5455 32.5549 42.5455 31.6648C42.5455 30.7708 42.7216 29.9867 43.0739 29.3125C43.4299 28.6345 43.9356 28.1061 44.5909 27.7273C45.25 27.3485 46.036 27.1591 46.9489 27.1591C47.7557 27.1591 48.4583 27.3049 49.0568 27.5966C49.6591 27.8883 50.1288 28.3011 50.4659 28.8352C50.8068 29.3655 50.9867 29.9886 51.0057 30.7045H48.4091C48.3561 30.2576 48.2045 29.9072 47.9545 29.6534C47.7083 29.3996 47.3864 29.2727 46.9886 29.2727C46.6667 29.2727 46.3845 29.3636 46.142 29.5455C45.8996 29.7235 45.7102 29.9886 45.5739 30.3409C45.4413 30.6894 45.375 31.1212 45.375 31.6364C45.375 32.1515 45.4413 32.5871 45.5739 32.9432C45.7102 33.2955 45.8996 33.5625 46.142 33.7443C46.3845 33.9223 46.6667 34.0114 46.9886 34.0114C47.2462 34.0114 47.4735 33.9564 47.6705 33.8466C47.8712 33.7367 48.036 33.5758 48.1648 33.3636C48.2936 33.1477 48.375 32.8864 48.4091 32.5795H51.0057C50.9792 33.2992 50.7992 33.928 50.4659 34.4659C50.1364 35.0038 49.6723 35.4223 49.0739 35.7216C48.4792 36.017 47.7727 36.1648 46.9545 36.1648ZM56.5014 36.1648C55.5848 36.1648 54.7969 35.9773 54.1378 35.6023C53.4825 35.2235 52.9768 34.697 52.6207 34.0227C52.2685 33.3447 52.0923 32.5587 52.0923 31.6648C52.0923 30.767 52.2685 29.9811 52.6207 29.3068C52.9768 28.6288 53.4825 28.1023 54.1378 27.7273C54.7969 27.3485 55.5848 27.1591 56.5014 27.1591C57.4181 27.1591 58.2041 27.3485 58.8594 27.7273C59.5185 28.1023 60.0241 28.6288 60.3764 29.3068C60.7325 29.9811 60.9105 30.767 60.9105 31.6648C60.9105 32.5587 60.7325 33.3447 60.3764 34.0227C60.0241 34.697 59.5185 35.2235 58.8594 35.6023C58.2041 35.9773 57.4181 36.1648 56.5014 36.1648ZM56.5185 34.0682C56.8518 34.0682 57.134 33.9659 57.3651 33.7614C57.5961 33.5568 57.7723 33.2727 57.8935 32.9091C58.0185 32.5455 58.081 32.125 58.081 31.6477C58.081 31.1629 58.0185 30.7386 57.8935 30.375C57.7723 30.0114 57.5961 29.7273 57.3651 29.5227C57.134 29.3182 56.8518 29.2159 56.5185 29.2159C56.1738 29.2159 55.8821 29.3182 55.6435 29.5227C55.4086 29.7273 55.2287 30.0114 55.1037 30.375C54.9825 30.7386 54.9219 31.1629 54.9219 31.6477C54.9219 32.125 54.9825 32.5455 55.1037 32.9091C55.2287 33.2727 55.4086 33.5568 55.6435 33.7614C55.8821 33.9659 56.1738 34.0682 56.5185 34.0682ZM62.3338 36V27.2727H64.9759V28.875H65.0724C65.2543 28.3447 65.5611 27.9261 65.9929 27.6193C66.4247 27.3125 66.9399 27.1591 67.5384 27.1591C68.1444 27.1591 68.6634 27.3144 69.0952 27.625C69.527 27.9356 69.8016 28.3523 69.919 28.875H70.0099C70.1728 28.3561 70.491 27.9413 70.9645 27.6307C71.438 27.3163 71.9967 27.1591 72.6406 27.1591C73.4664 27.1591 74.1368 27.4242 74.652 27.9545C75.1671 28.4811 75.4247 29.2045 75.4247 30.125V36H72.6463V30.7614C72.6463 30.3258 72.5346 29.9943 72.3111 29.767C72.0876 29.536 71.7978 29.4205 71.4418 29.4205C71.0592 29.4205 70.758 29.5455 70.5384 29.7955C70.3224 30.0417 70.2145 30.3731 70.2145 30.7898V36H67.544V30.733C67.544 30.3277 67.4342 30.0076 67.2145 29.7727C66.9948 29.5379 66.705 29.4205 66.3452 29.4205C66.1027 29.4205 65.8887 29.4792 65.7031 29.5966C65.5175 29.7102 65.3717 29.8731 65.2656 30.0852C65.1634 30.2973 65.1122 30.5473 65.1122 30.8352V36H62.3338ZM77.1463 39.2727V27.2727H79.8963V28.767H79.9815C80.0952 28.5019 80.2562 28.2462 80.4645 28C80.6766 27.7538 80.9455 27.553 81.2713 27.3977C81.6009 27.2386 81.9948 27.1591 82.4531 27.1591C83.0592 27.1591 83.6255 27.3182 84.152 27.6364C84.6823 27.9545 85.1103 28.4451 85.4361 29.108C85.7618 29.7708 85.9247 30.6155 85.9247 31.642C85.9247 32.6307 85.7675 33.4583 85.4531 34.125C85.1425 34.7917 84.7221 35.2917 84.1918 35.625C83.6652 35.9583 83.08 36.125 82.4361 36.125C81.9967 36.125 81.616 36.053 81.294 35.9091C80.9721 35.7652 80.7012 35.5758 80.4815 35.3409C80.2656 35.1061 80.099 34.8542 79.9815 34.5852H79.9247V39.2727H77.1463ZM79.8679 31.6364C79.8679 32.1061 79.9304 32.5152 80.0554 32.8636C80.1842 33.2121 80.3679 33.483 80.6065 33.6761C80.849 33.8655 81.1387 33.9602 81.4759 33.9602C81.8168 33.9602 82.1065 33.8655 82.3452 33.6761C82.5838 33.483 82.7637 33.2121 82.8849 32.8636C83.0099 32.5152 83.0724 32.1061 83.0724 31.6364C83.0724 31.1667 83.0099 30.7595 82.8849 30.4148C82.7637 30.0701 82.5838 29.803 82.3452 29.6136C82.1103 29.4242 81.8205 29.3295 81.4759 29.3295C81.1349 29.3295 80.8452 29.4223 80.6065 29.608C80.3679 29.7936 80.1842 30.0587 80.0554 30.4034C79.9304 30.7481 79.8679 31.1591 79.8679 31.6364ZM87.3807 36V27.2727H90.1591V36H87.3807ZM88.7727 26.2557C88.3826 26.2557 88.0473 26.1269 87.767 25.8693C87.4867 25.608 87.3466 25.2936 87.3466 24.9261C87.3466 24.5625 87.4867 24.2519 87.767 23.9943C88.0473 23.733 88.3826 23.6023 88.7727 23.6023C89.1667 23.6023 89.5019 23.733 89.7784 23.9943C90.0587 24.2519 90.1989 24.5625 90.1989 24.9261C90.1989 25.2936 90.0587 25.608 89.7784 25.8693C89.5019 26.1269 89.1667 26.2557 88.7727 26.2557ZM94.706 24.3636V36H91.9276V24.3636H94.706ZM100.554 36.1648C99.6411 36.1648 98.8532 35.9848 98.1903 35.625C97.5313 35.2614 97.0237 34.7443 96.6676 34.0739C96.3153 33.3996 96.1392 32.5985 96.1392 31.6705C96.1392 30.7689 96.3172 29.9811 96.6733 29.3068C97.0294 28.6288 97.5312 28.1023 98.179 27.7273C98.8267 27.3485 99.59 27.1591 100.469 27.1591C101.09 27.1591 101.658 27.2557 102.173 27.4489C102.688 27.642 103.134 27.928 103.509 28.3068C103.884 28.6856 104.175 29.1534 104.384 29.7102C104.592 30.2633 104.696 30.8977 104.696 31.6136V32.3068H97.1108V30.6932H102.111C102.107 30.3977 102.037 30.1345 101.901 29.9034C101.764 29.6723 101.577 29.4924 101.338 29.3636C101.103 29.2311 100.832 29.1648 100.526 29.1648C100.215 29.1648 99.9366 29.2348 99.6903 29.375C99.4441 29.5114 99.2491 29.6989 99.1051 29.9375C98.9612 30.1723 98.8854 30.4394 98.8778 30.7386V32.3807C98.8778 32.7367 98.9479 33.0492 99.0881 33.3182C99.2282 33.5833 99.4271 33.7898 99.6847 33.9375C99.9422 34.0852 100.249 34.1591 100.605 34.1591C100.851 34.1591 101.075 34.125 101.276 34.0568C101.476 33.9886 101.649 33.8883 101.793 33.7557C101.937 33.6231 102.045 33.4602 102.116 33.267L104.668 33.3409C104.562 33.9129 104.329 34.411 103.969 34.8352C103.613 35.2557 103.145 35.5833 102.565 35.8182C101.986 36.0492 101.315 36.1648 100.554 36.1648ZM106.115 36V27.2727H108.814V28.8636H108.905C109.064 28.2879 109.323 27.8598 109.683 27.5795C110.043 27.2955 110.462 27.1534 110.939 27.1534C111.068 27.1534 111.2 27.1629 111.337 27.1818C111.473 27.197 111.6 27.2216 111.717 27.2557V29.6705C111.585 29.625 111.411 29.589 111.195 29.5625C110.982 29.536 110.793 29.5227 110.626 29.5227C110.297 29.5227 110 29.5966 109.734 29.7443C109.473 29.8883 109.267 30.0909 109.115 30.3523C108.967 30.6098 108.893 30.9129 108.893 31.2614V36H106.115Z" fill="black"/>
<path d="M13.8075 25.1C13.3075 24.9 12.8225 24.7075 12.3525 24.5225C11.8825 24.3375 11.44 24.1625 11.025 23.9975L9.5775 23.4125C9.1725 23.2475 8.735 23.0725 8.265 22.8875C7.795 22.7025 7.315 22.5125 6.825 22.3175V20.6375C7.32 20.4425 7.8025 20.2525 8.2725 20.0675C8.7425 19.8775 9.18 19.7025 9.585 19.5425L11.0325 18.9575C11.4425 18.7925 11.8825 18.6175 12.3525 18.4325C12.8225 18.2475 13.3075 18.055 13.8075 17.855V19.6175C13.3275 19.8075 12.845 20 12.36 20.195C11.875 20.385 11.39 20.58 10.905 20.78L9.3675 21.395V21.56L10.905 22.175C11.385 22.365 11.87 22.5575 12.36 22.7525C12.85 22.9475 13.3325 23.1425 13.8075 23.3375V25.1ZM24.0662 25.1V23.3375C24.5412 23.1425 25.0212 22.9475 25.5062 22.7525C25.9962 22.5575 26.4837 22.365 26.9687 22.175L28.4987 21.56V21.395L26.9687 20.78C26.4837 20.585 25.9962 20.39 25.5062 20.195C25.0212 20 24.5412 19.8075 24.0662 19.6175V17.855C24.5612 18.05 25.0437 18.2425 25.5137 18.4325C25.9837 18.6175 26.4237 18.7925 26.8337 18.9575L28.2887 19.5425C28.6937 19.7025 29.1312 19.8775 29.6012 20.0675C30.0712 20.2525 30.5537 20.4425 31.0487 20.6375V22.3175C30.5537 22.5125 30.0712 22.7025 29.6012 22.8875C29.1312 23.0725 28.6937 23.2475 28.2887 23.4125L26.8337 23.9975C26.4237 24.1625 25.9837 24.34 25.5137 24.53C25.0437 24.715 24.5612 24.905 24.0662 25.1Z" fill="white"/>
<rect width="18.0356" height="2.44713" transform="matrix(0.384648 -0.923063 0.926678 0.375857 14.1905 29.2725)" fill="white"/>
<circle cx="18" cy="22" r="18" fill="#00A6FF"/>
<path d="M42.5 7.64773V5.36364H52.3352V7.64773H48.8068V17H46.0341V7.64773H42.5ZM52.8026 17V8.27273H55.5014V9.86364H55.5923C55.7514 9.28788 56.0109 8.85985 56.3707 8.57955C56.7306 8.29545 57.1491 8.15341 57.6264 8.15341C57.7552 8.15341 57.8878 8.16288 58.0241 8.18182C58.1605 8.19697 58.2874 8.22159 58.4048 8.25568V10.6705C58.2723 10.625 58.098 10.589 57.8821 10.5625C57.67 10.536 57.4806 10.5227 57.3139 10.5227C56.9844 10.5227 56.687 10.5966 56.4219 10.7443C56.1605 10.8883 55.9541 11.0909 55.8026 11.3523C55.6548 11.6098 55.581 11.9129 55.581 12.2614V17H52.8026ZM59.5369 17V8.27273H62.3153V17H59.5369ZM60.929 7.25568C60.5388 7.25568 60.2036 7.12689 59.9233 6.86932C59.643 6.60795 59.5028 6.29356 59.5028 5.92614C59.5028 5.5625 59.643 5.25189 59.9233 4.99432C60.2036 4.73295 60.5388 4.60227 60.929 4.60227C61.3229 4.60227 61.6581 4.73295 61.9347 4.99432C62.215 5.25189 62.3551 5.5625 62.3551 5.92614C62.3551 6.29356 62.215 6.60795 61.9347 6.86932C61.6581 7.12689 61.3229 7.25568 60.929 7.25568ZM78.0838 9.57955H75.2429C75.205 9.28788 75.1274 9.02462 75.0099 8.78977C74.8925 8.55492 74.7372 8.35417 74.544 8.1875C74.3509 8.02083 74.1217 7.89394 73.8565 7.80682C73.5952 7.71591 73.3054 7.67045 72.9872 7.67045C72.4228 7.67045 71.9361 7.80871 71.527 8.08523C71.1217 8.36174 70.8092 8.76136 70.5895 9.28409C70.3736 9.80682 70.2656 10.4394 70.2656 11.1818C70.2656 11.9545 70.3755 12.6023 70.5952 13.125C70.8187 13.6439 71.1312 14.036 71.5327 14.3011C71.938 14.5625 72.4171 14.6932 72.9702 14.6932C73.2808 14.6932 73.563 14.6534 73.8168 14.5739C74.0743 14.4943 74.2997 14.3788 74.4929 14.2273C74.6899 14.072 74.8509 13.8845 74.9759 13.6648C75.1046 13.4413 75.1937 13.1894 75.2429 12.9091L78.0838 12.9261C78.0346 13.4413 77.8849 13.9489 77.6349 14.4489C77.3887 14.9489 77.0497 15.4053 76.6179 15.8182C76.1861 16.2273 75.6596 16.553 75.0384 16.7955C74.4209 17.0379 73.7126 17.1591 72.9134 17.1591C71.8603 17.1591 70.9171 16.928 70.0838 16.4659C69.2543 16 68.599 15.322 68.1179 14.4318C67.6368 13.5417 67.3963 12.4583 67.3963 11.1818C67.3963 9.90152 67.6406 8.81629 68.1293 7.92614C68.6179 7.03598 69.2789 6.35985 70.1122 5.89773C70.9455 5.43561 71.8793 5.20455 72.9134 5.20455C73.6179 5.20455 74.2694 5.30303 74.8679 5.5C75.4664 5.69318 75.9929 5.97727 76.4474 6.35227C76.902 6.72348 77.2713 7.17992 77.5554 7.72159C77.8395 8.26326 78.0156 8.88258 78.0838 9.57955ZM83.767 17.1648C82.8504 17.1648 82.0625 16.9773 81.4034 16.6023C80.7481 16.2235 80.2424 15.697 79.8864 15.0227C79.5341 14.3447 79.358 13.5587 79.358 12.6648C79.358 11.767 79.5341 10.9811 79.8864 10.3068C80.2424 9.62879 80.7481 9.10227 81.4034 8.72727C82.0625 8.34848 82.8504 8.15909 83.767 8.15909C84.6837 8.15909 85.4697 8.34848 86.125 8.72727C86.7841 9.10227 87.2898 9.62879 87.642 10.3068C87.9981 10.9811 88.1761 11.767 88.1761 12.6648C88.1761 13.5587 87.9981 14.3447 87.642 15.0227C87.2898 15.697 86.7841 16.2235 86.125 16.6023C85.4697 16.9773 84.6837 17.1648 83.767 17.1648ZM83.7841 15.0682C84.1174 15.0682 84.3996 14.9659 84.6307 14.7614C84.8617 14.5568 85.0379 14.2727 85.1591 13.9091C85.2841 13.5455 85.3466 13.125 85.3466 12.6477C85.3466 12.1629 85.2841 11.7386 85.1591 11.375C85.0379 11.0114 84.8617 10.7273 84.6307 10.5227C84.3996 10.3182 84.1174 10.2159 83.7841 10.2159C83.4394 10.2159 83.1477 10.3182 82.9091 10.5227C82.6742 10.7273 82.4943 11.0114 82.3693 11.375C82.2481 11.7386 82.1875 12.1629 82.1875 12.6477C82.1875 13.125 82.2481 13.5455 82.3693 13.9091C82.4943 14.2727 82.6742 14.5568 82.9091 14.7614C83.1477 14.9659 83.4394 15.0682 83.7841 15.0682ZM92.7869 17.125C92.143 17.125 91.5578 16.9583 91.0312 16.625C90.5047 16.2917 90.0843 15.7917 89.7699 15.125C89.4555 14.4583 89.2983 13.6307 89.2983 12.642C89.2983 11.6155 89.4612 10.7708 89.7869 10.108C90.1127 9.44508 90.5388 8.95455 91.0653 8.63636C91.5956 8.31818 92.1657 8.15909 92.7756 8.15909C93.2339 8.15909 93.6259 8.23864 93.9517 8.39773C94.2775 8.55303 94.5464 8.75379 94.7585 9C94.9706 9.24621 95.1316 9.50189 95.2415 9.76705H95.2983V5.36364H98.0767V17H95.3267V15.5852H95.2415C95.1241 15.8542 94.9574 16.1061 94.7415 16.3409C94.5256 16.5758 94.2547 16.7652 93.929 16.9091C93.607 17.053 93.2263 17.125 92.7869 17.125ZM93.7528 14.9602C94.09 14.9602 94.3778 14.8655 94.6165 14.6761C94.8551 14.483 95.0388 14.2121 95.1676 13.8636C95.2964 13.5152 95.3608 13.1061 95.3608 12.6364C95.3608 12.1591 95.2964 11.7481 95.1676 11.4034C95.0426 11.0587 94.8589 10.7936 94.6165 10.608C94.3778 10.4223 94.09 10.3295 93.7528 10.3295C93.4081 10.3295 93.1165 10.4242 92.8778 10.6136C92.6392 10.803 92.4574 11.0701 92.3324 11.4148C92.2112 11.7595 92.1506 12.1667 92.1506 12.6364C92.1506 13.1061 92.2131 13.5152 92.3381 13.8636C92.4631 14.2121 92.643 14.483 92.8778 14.6761C93.1165 14.8655 93.4081 14.9602 93.7528 14.9602ZM103.913 17.1648C103 17.1648 102.213 16.9848 101.55 16.625C100.891 16.2614 100.383 15.7443 100.027 15.0739C99.6747 14.3996 99.4986 13.5985 99.4986 12.6705C99.4986 11.7689 99.6766 10.9811 100.033 10.3068C100.389 9.62879 100.891 9.10227 101.538 8.72727C102.186 8.34848 102.949 8.15909 103.828 8.15909C104.449 8.15909 105.018 8.25568 105.533 8.44886C106.048 8.64205 106.493 8.92803 106.868 9.30682C107.243 9.68561 107.535 10.1534 107.743 10.7102C107.951 11.2633 108.055 11.8977 108.055 12.6136V13.3068H100.47V11.6932H105.47C105.466 11.3977 105.396 11.1345 105.26 10.9034C105.124 10.6723 104.936 10.4924 104.697 10.3636C104.463 10.2311 104.192 10.1648 103.885 10.1648C103.574 10.1648 103.296 10.2348 103.05 10.375C102.804 10.5114 102.608 10.6989 102.464 10.9375C102.321 11.1723 102.245 11.4394 102.237 11.7386V13.3807C102.237 13.7367 102.307 14.0492 102.447 14.3182C102.588 14.5833 102.786 14.7898 103.044 14.9375C103.302 15.0852 103.608 15.1591 103.964 15.1591C104.211 15.1591 104.434 15.125 104.635 15.0568C104.836 14.9886 105.008 14.8883 105.152 14.7557C105.296 14.6231 105.404 14.4602 105.476 14.267L108.027 14.3409C107.921 14.9129 107.688 15.411 107.328 15.8352C106.972 16.2557 106.504 16.5833 105.925 16.8182C105.345 17.0492 104.675 17.1648 103.913 17.1648Z" fill="#0088FF"/>
<path d="M46.9545 36.1648C46.0341 36.1648 45.2443 35.9754 44.5852 35.5966C43.9299 35.2178 43.4261 34.6913 43.0739 34.017C42.7216 33.339 42.5455 32.5549 42.5455 31.6648C42.5455 30.7708 42.7216 29.9867 43.0739 29.3125C43.4299 28.6345 43.9356 28.1061 44.5909 27.7273C45.25 27.3485 46.036 27.1591 46.9489 27.1591C47.7557 27.1591 48.4583 27.3049 49.0568 27.5966C49.6591 27.8883 50.1288 28.3011 50.4659 28.8352C50.8068 29.3655 50.9867 29.9886 51.0057 30.7045H48.4091C48.3561 30.2576 48.2045 29.9072 47.9545 29.6534C47.7083 29.3996 47.3864 29.2727 46.9886 29.2727C46.6667 29.2727 46.3845 29.3636 46.142 29.5455C45.8996 29.7235 45.7102 29.9886 45.5739 30.3409C45.4413 30.6894 45.375 31.1212 45.375 31.6364C45.375 32.1515 45.4413 32.5871 45.5739 32.9432C45.7102 33.2955 45.8996 33.5625 46.142 33.7443C46.3845 33.9223 46.6667 34.0114 46.9886 34.0114C47.2462 34.0114 47.4735 33.9564 47.6705 33.8466C47.8712 33.7367 48.036 33.5758 48.1648 33.3636C48.2936 33.1477 48.375 32.8864 48.4091 32.5795H51.0057C50.9792 33.2992 50.7992 33.928 50.4659 34.4659C50.1364 35.0038 49.6723 35.4223 49.0739 35.7216C48.4792 36.017 47.7727 36.1648 46.9545 36.1648ZM56.5014 36.1648C55.5848 36.1648 54.7969 35.9773 54.1378 35.6023C53.4825 35.2235 52.9768 34.697 52.6207 34.0227C52.2685 33.3447 52.0923 32.5587 52.0923 31.6648C52.0923 30.767 52.2685 29.9811 52.6207 29.3068C52.9768 28.6288 53.4825 28.1023 54.1378 27.7273C54.7969 27.3485 55.5848 27.1591 56.5014 27.1591C57.4181 27.1591 58.2041 27.3485 58.8594 27.7273C59.5185 28.1023 60.0241 28.6288 60.3764 29.3068C60.7325 29.9811 60.9105 30.767 60.9105 31.6648C60.9105 32.5587 60.7325 33.3447 60.3764 34.0227C60.0241 34.697 59.5185 35.2235 58.8594 35.6023C58.2041 35.9773 57.4181 36.1648 56.5014 36.1648ZM56.5185 34.0682C56.8518 34.0682 57.134 33.9659 57.3651 33.7614C57.5961 33.5568 57.7723 33.2727 57.8935 32.9091C58.0185 32.5455 58.081 32.125 58.081 31.6477C58.081 31.1629 58.0185 30.7386 57.8935 30.375C57.7723 30.0114 57.5961 29.7273 57.3651 29.5227C57.134 29.3182 56.8518 29.2159 56.5185 29.2159C56.1738 29.2159 55.8821 29.3182 55.6435 29.5227C55.4086 29.7273 55.2287 30.0114 55.1037 30.375C54.9825 30.7386 54.9219 31.1629 54.9219 31.6477C54.9219 32.125 54.9825 32.5455 55.1037 32.9091C55.2287 33.2727 55.4086 33.5568 55.6435 33.7614C55.8821 33.9659 56.1738 34.0682 56.5185 34.0682ZM62.3338 36V27.2727H64.9759V28.875H65.0724C65.2543 28.3447 65.5611 27.9261 65.9929 27.6193C66.4247 27.3125 66.9399 27.1591 67.5384 27.1591C68.1444 27.1591 68.6634 27.3144 69.0952 27.625C69.527 27.9356 69.8016 28.3523 69.919 28.875H70.0099C70.1728 28.3561 70.491 27.9413 70.9645 27.6307C71.438 27.3163 71.9967 27.1591 72.6406 27.1591C73.4664 27.1591 74.1368 27.4242 74.652 27.9545C75.1671 28.4811 75.4247 29.2045 75.4247 30.125V36H72.6463V30.7614C72.6463 30.3258 72.5346 29.9943 72.3111 29.767C72.0876 29.536 71.7978 29.4205 71.4418 29.4205C71.0592 29.4205 70.758 29.5455 70.5384 29.7955C70.3224 30.0417 70.2145 30.3731 70.2145 30.7898V36H67.544V30.733C67.544 30.3277 67.4342 30.0076 67.2145 29.7727C66.9948 29.5379 66.705 29.4205 66.3452 29.4205C66.1027 29.4205 65.8887 29.4792 65.7031 29.5966C65.5175 29.7102 65.3717 29.8731 65.2656 30.0852C65.1634 30.2973 65.1122 30.5473 65.1122 30.8352V36H62.3338ZM77.1463 39.2727V27.2727H79.8963V28.767H79.9815C80.0952 28.5019 80.2562 28.2462 80.4645 28C80.6766 27.7538 80.9455 27.553 81.2713 27.3977C81.6009 27.2386 81.9948 27.1591 82.4531 27.1591C83.0592 27.1591 83.6255 27.3182 84.152 27.6364C84.6823 27.9545 85.1103 28.4451 85.4361 29.108C85.7618 29.7708 85.9247 30.6155 85.9247 31.642C85.9247 32.6307 85.7675 33.4583 85.4531 34.125C85.1425 34.7917 84.7221 35.2917 84.1918 35.625C83.6652 35.9583 83.08 36.125 82.4361 36.125C81.9967 36.125 81.616 36.053 81.294 35.9091C80.9721 35.7652 80.7012 35.5758 80.4815 35.3409C80.2656 35.1061 80.099 34.8542 79.9815 34.5852H79.9247V39.2727H77.1463ZM79.8679 31.6364C79.8679 32.1061 79.9304 32.5152 80.0554 32.8636C80.1842 33.2121 80.3679 33.483 80.6065 33.6761C80.849 33.8655 81.1387 33.9602 81.4759 33.9602C81.8168 33.9602 82.1065 33.8655 82.3452 33.6761C82.5838 33.483 82.7637 33.2121 82.8849 32.8636C83.0099 32.5152 83.0724 32.1061 83.0724 31.6364C83.0724 31.1667 83.0099 30.7595 82.8849 30.4148C82.7637 30.0701 82.5838 29.803 82.3452 29.6136C82.1103 29.4242 81.8205 29.3295 81.4759 29.3295C81.1349 29.3295 80.8452 29.4223 80.6065 29.608C80.3679 29.7936 80.1842 30.0587 80.0554 30.4034C79.9304 30.7481 79.8679 31.1591 79.8679 31.6364ZM87.3807 36V27.2727H90.1591V36H87.3807ZM88.7727 26.2557C88.3826 26.2557 88.0473 26.1269 87.767 25.8693C87.4867 25.608 87.3466 25.2936 87.3466 24.9261C87.3466 24.5625 87.4867 24.2519 87.767 23.9943C88.0473 23.733 88.3826 23.6023 88.7727 23.6023C89.1667 23.6023 89.5019 23.733 89.7784 23.9943C90.0587 24.2519 90.1989 24.5625 90.1989 24.9261C90.1989 25.2936 90.0587 25.608 89.7784 25.8693C89.5019 26.1269 89.1667 26.2557 88.7727 26.2557ZM94.706 24.3636V36H91.9276V24.3636H94.706ZM100.554 36.1648C99.6411 36.1648 98.8532 35.9848 98.1903 35.625C97.5313 35.2614 97.0237 34.7443 96.6676 34.0739C96.3153 33.3996 96.1392 32.5985 96.1392 31.6705C96.1392 30.7689 96.3172 29.9811 96.6733 29.3068C97.0294 28.6288 97.5312 28.1023 98.179 27.7273C98.8267 27.3485 99.59 27.1591 100.469 27.1591C101.09 27.1591 101.658 27.2557 102.173 27.4489C102.688 27.642 103.134 27.928 103.509 28.3068C103.884 28.6856 104.175 29.1534 104.384 29.7102C104.592 30.2633 104.696 30.8977 104.696 31.6136V32.3068H97.1108V30.6932H102.111C102.107 30.3977 102.037 30.1345 101.901 29.9034C101.764 29.6723 101.577 29.4924 101.338 29.3636C101.103 29.2311 100.832 29.1648 100.526 29.1648C100.215 29.1648 99.9366 29.2348 99.6903 29.375C99.4441 29.5114 99.2491 29.6989 99.1051 29.9375C98.9612 30.1723 98.8854 30.4394 98.8778 30.7386V32.3807C98.8778 32.7367 98.9479 33.0492 99.0881 33.3182C99.2282 33.5833 99.4271 33.7898 99.6847 33.9375C99.9422 34.0852 100.249 34.1591 100.605 34.1591C100.851 34.1591 101.075 34.125 101.276 34.0568C101.476 33.9886 101.649 33.8883 101.793 33.7557C101.937 33.6231 102.045 33.4602 102.116 33.267L104.668 33.3409C104.562 33.9129 104.329 34.411 103.969 34.8352C103.613 35.2557 103.145 35.5833 102.565 35.8182C101.986 36.0492 101.315 36.1648 100.554 36.1648ZM106.115 36V27.2727H108.814V28.8636H108.905C109.064 28.2879 109.323 27.8598 109.683 27.5795C110.043 27.2955 110.462 27.1534 110.939 27.1534C111.068 27.1534 111.2 27.1629 111.337 27.1818C111.473 27.197 111.6 27.2216 111.717 27.2557V29.6705C111.585 29.625 111.411 29.589 111.195 29.5625C110.982 29.536 110.793 29.5227 110.626 29.5227C110.297 29.5227 110 29.5966 109.734 29.7443C109.473 29.8883 109.267 30.0909 109.115 30.3523C108.967 30.6098 108.893 30.9129 108.893 31.2614V36H106.115Z" fill="black"/>
<path d="M13.8075 25.1C13.3075 24.9 12.8225 24.7075 12.3525 24.5225C11.8825 24.3375 11.44 24.1625 11.025 23.9975L9.5775 23.4125C9.1725 23.2475 8.735 23.0725 8.265 22.8875C7.795 22.7025 7.315 22.5125 6.825 22.3175V20.6375C7.32 20.4425 7.8025 20.2525 8.2725 20.0675C8.7425 19.8775 9.18 19.7025 9.585 19.5425L11.0325 18.9575C11.4425 18.7925 11.8825 18.6175 12.3525 18.4325C12.8225 18.2475 13.3075 18.055 13.8075 17.855V19.6175C13.3275 19.8075 12.845 20 12.36 20.195C11.875 20.385 11.39 20.58 10.905 20.78L9.3675 21.395V21.56L10.905 22.175C11.385 22.365 11.87 22.5575 12.36 22.7525C12.85 22.9475 13.3325 23.1425 13.8075 23.3375V25.1ZM24.0662 25.1V23.3375C24.5412 23.1425 25.0212 22.9475 25.5062 22.7525C25.9962 22.5575 26.4837 22.365 26.9687 22.175L28.4987 21.56V21.395L26.9687 20.78C26.4837 20.585 25.9962 20.39 25.5062 20.195C25.0212 20 24.5412 19.8075 24.0662 19.6175V17.855C24.5612 18.05 25.0437 18.2425 25.5137 18.4325C25.9837 18.6175 26.4237 18.7925 26.8337 18.9575L28.2887 19.5425C28.6937 19.7025 29.1312 19.8775 29.6012 20.0675C30.0712 20.2525 30.5537 20.4425 31.0487 20.6375V22.3175C30.5537 22.5125 30.0712 22.7025 29.6012 22.8875C29.1312 23.0725 28.6937 23.2475 28.2887 23.4125L26.8337 23.9975C26.4237 24.1625 25.9837 24.34 25.5137 24.53C25.0437 24.715 24.5612 24.905 24.0662 25.1Z" fill="white"/>
<rect width="18.0356" height="2.44713" transform="matrix(0.384648 -0.923063 0.926678 0.375857 14.1905 29.2725)" fill="white"/>
</svg>
